<svg width="65" height="65" viewBox="0 0 65 65" fill="none" xmlns="http://www.w3.org/2000/svg">
<circle cx="32.5002" cy="32.5" r="32.5" fill="white"/>
<path d="M2.00018 32.3897C2.00018 16.8697 13.6328 3.77743 29.0276 2.04335L20.8978 10.1935L24.8762 14.2252L29.4601 9.62994V17.5633C21.2437 19.2541 15.968 27.2308 17.6545 35.4677C19.341 43.7046 27.2979 48.9935 35.5142 47.3028C37.2007 46.9559 38.844 46.3057 40.3575 45.3953L43.3413 48.9935L38.9737 52.7651L42.5197 57.1003L46.9306 53.2853L50.2604 57.2737C36.5521 67.1146 17.5247 63.9499 7.70837 50.2507C4.03264 45.0051 2.00018 38.7624 2.00018 32.3897ZM35.6007 2C52.3361 3.69073 64.5309 18.7338 62.8443 35.511C62.1524 42.2739 59.2551 48.6033 54.5415 53.5454L51.2117 49.6004L55.4929 45.9155L51.9469 41.5803L47.6225 45.3086L44.5522 41.6237C49.6117 34.9475 48.3576 25.4534 41.6981 20.3379C39.7953 18.8639 37.5467 17.8668 35.1682 17.4766V9.58659L39.7521 14.1819L43.7305 10.1502L35.6007 2ZM23.3194 32.3897C23.3194 27.3175 27.4276 23.1991 32.4871 23.1991C37.5467 23.1991 41.6548 27.3175 41.6548 32.3897C41.6548 37.4619 37.5467 41.5803 32.4871 41.5803C27.4276 41.6237 23.3194 37.4619 23.3194 32.3897Z" fill="black"/>
</svg>
