<svg width="65" height="65" viewBox="0 0 65 65" fill="none" xmlns="http://www.w3.org/2000/svg">
<circle cx="32.5001" cy="32.5" r="32.5" fill="white"/>
<path d="M2.00009 32.506C2.00009 29.9529 2.30269 27.3999 2.95113 24.9334L21.0641 33.1983L6.75528 48.8194C3.64279 43.973 2.00009 38.3044 2.00009 32.506ZM4.20477 21.1255C10.2568 6.06695 27.0297 -1.59214 42.3327 3.64374L32.9088 13.726L24.6521 6.15349L24.0036 16.0627L4.20477 21.1255ZM46.0937 5.20152C50.6327 7.49493 54.5233 10.8268 57.4629 15.0242L41.3817 18.0532L46.0937 5.20152ZM58.6301 16.7983C63.4285 24.8036 64.3363 34.5397 61.0509 43.2374L44.84 27.3999L58.6301 16.7983ZM60.9212 43.5835C54.7827 59.2911 37.102 67.0368 21.4099 60.8922C15.5308 58.5988 10.5162 54.5313 7.05788 49.2521L29.2344 41.1603L36.1942 45.7904L30.6177 38.1313L16.3521 43.5835L25.8625 31.9002L5.8907 20.8659L26.4677 21.9044L26.8135 14.8078L30.1854 22.1208L41.3385 7.40837L38.8744 21.2986L46.3098 19.4379L42.1166 26.0152L50.1572 39.6891L36.3671 34.9725V45.8769L43.4567 50.6368L38.5718 38.4342L60.9212 43.5835Z" fill="black"/>
</svg>
