<svg width="65" height="65" viewBox="0 0 65 65" fill="none" xmlns="http://www.w3.org/2000/svg">
<circle cx="32.5" cy="32.5" r="32.5" fill="white"/>
<path fill-rule="evenodd" clip-rule="evenodd" d="M11.6042 25.3617V21.295H21.1652V40.9794H25.3617V45.0894H11.9071V41.0227H17.1418V25.3617H11.6042ZM26.9192 24.2801C26.9192 24.2801 34.7929 17.4879 38.9461 21.944C43.1426 26.4433 38.0809 29.7745 38.0809 29.7745L36.9128 30.9426C36.9128 30.9426 43.1426 32.673 41.9745 37.9078C40.8064 43.1426 34.5766 45.1326 34.5766 45.1326L33.4085 45.2624H26.7461V40.9362H32.8028C32.8028 40.9362 36.9993 40.3305 37.4319 37.3021C37.8645 34.2738 34.966 33.8411 34.966 33.8411C34.966 33.8411 32.6731 33.8411 31.7646 34.4468L30.4667 31.8511L34.6631 29.3851C34.6631 29.3851 37.4319 27.6113 35.6582 25.0156C33.9277 22.4199 30.4234 25.8808 30.4234 25.8808L29.1255 27.3085L26.9192 24.2801ZM7.45107 32.5C7.45107 18.656 18.656 7.45106 32.5 7.4078C46.344 7.4078 57.5489 18.6128 57.5922 32.4567C57.5922 46.3007 46.3872 57.5057 32.5433 57.5489C18.656 57.5922 7.45107 46.344 7.45107 32.5ZM2 32.5C2 15.6709 15.6709 2 32.5 2C49.3291 2 63 15.6709 63 32.5C63 49.3291 49.3291 63 32.5 63C15.6709 63 2 49.3723 2 32.5ZM47.4255 25.8376H51.449V30.5532H56.1645V34.6199H51.4922V39.3355H47.4688V34.6199H42.7532V30.5532H47.4688V25.8376H47.4255Z" fill="black"/>
</svg>
